REM MD5 3f5ed8ea9c22e3f252b984e324b4e048
FILE "King of Producer (Japan).bin" BINARY
  TRACK 01 MODE2/2352
    INDEX 01 00:00:00
  TRACK 02 AUDIO
    INDEX 00 01:23:60
    INDEX 01 01:25:60
  TRACK 03 AUDIO
    INDEX 00 02:52:61
    INDEX 01 02:54:61
  TRACK 04 AUDIO
    INDEX 00 04:57:62
    INDEX 01 04:59:62
  TRACK 05 AUDIO
    INDEX 00 07:02:63
    INDEX 01 07:04:63
REM LEADOUT 11:07:64
